<?xml version="1.0" encoding="UTF-8" standalone="no"?>
<!DOCTYPE svg PUBLIC "-//W3C//DTD SVG 1.1//EN" "http://www.w3.org/Graphics/SVG/1.1/DTD/svg11.dtd">
<!-- Created on 2010-05-14 by Jorge Stolfi with the script make-hash-table-figure -->

<svg
  xmlns="http://www.w3.org/2000/svg"
  xmlns:xlink="http://www.w3.org/1999/xlink"
  width="300.0"
  height="330.0"
  id="fig"
  stroke-width="1px"
  stroke-linejoin="round"
  stroke-opacity="1"
  stroke-linecap="round"
  fill-opacity="1"
  fill-rule="evenodd"
  font-family="Bitstream Courier"
  font-style="normal"
  font-weight="normal"
  pagecolor="#ffff00"
  pageopacity="0.0">


  <g
    font-size="12px"
    transform="scale(1.0) translate(10,60)"
  >

  <defs>
    <!-- Start marker for non-null pointers: -->
    <marker id="linkdot_N" viewBox="0 0 8 8" refX="4" refY="4" markerWidth="8" markerHeight="8" orient="auto">
      <circle cx="4" cy="4" r="3" stroke="#000000" fill="#000000" />
    </marker>
    <!-- Start marker for null pointers: -->
    <marker id="linkdot_U" viewBox="0 0 8 8" refX="4" refY="4" markerWidth="8" markerHeight="8" orient="auto">
      <line x1="1" y1="1" x2="7" y2="7" stroke="#000000" />
      <line x1="1" y1="7" x2="7" y2="1" stroke="#000000" />
    </marker>

    <!-- Tip for arrows: -->
    <marker id="arrowtip_N" viewBox="0 0 14 8" refX="13" refY="4" markerWidth="14" markerHeight="8" orient="auto">
      <polygon points="1,4  1,1  13,4  1,7" stroke="#000000" fill="#000000" />
    </marker>
    <!-- Tip for highlighted arrows: -->
    <marker id="arrowtip_C" viewBox="0 0 14 8" refX="13" refY="4" markerWidth="14" markerHeight="8" orient="auto">
      <polygon points="1,4  1,1  13,4  1,7" stroke="#aaaaaa" fill="#aaaaaa" />
    </marker>

    <!-- Key box in input column, normal: -->
    <rect id="key_box_N"   y="0" x="0" width="30" height="20" fill="none" stroke-width="0px" stroke="none" />
    <!-- Key box in input column, highlighted : -->
    <rect id="key_box_C"   y="0" x="0" width="30" height="20" fill="none" stroke-width="0px" stroke="none" />
    <!-- Key box in bucket or overflow columns, normal: -->
    <rect id="key_box_E"   y="0" x="0" width="30" height="20" fill="none" stroke="#000000" />
    <!-- Key box in bucket or overflow columns, vacant: -->
    <rect id="key_box_U"   y="0" x="0" width="30" height="20" fill="#ddeedd" stroke="#000000" />

    <!-- Value box in bucket or overflow columns, occupied: -->
    <rect id="val_box_E"   y="0" x="0" width="80" height="20" fill="none" stroke="#000000" />
    <!-- Value box in bucket or overflow columns, vacant: -->
    <rect id="val_box_U"   y="0" x="0" width="80" height="20" fill="none" stroke="#000000" />

    <!-- Pointer box in bucket or overflow columns, used and non-null: -->
    <rect id="ptr_box_E"   y="0" x="0" width="20" height="20" fill="none" stroke="#000000" />
    <!-- Pointer box in bucket or overflow columns, null/vacant: -->
    <rect id="ptr_box_U"   y="0" x="0" width="20" height="20" fill="none" stroke="#000000" />

    <!-- Background for hash value, unused: -->
    <rect id="hsh_box_U" x="3" y="1" width="34" height="18" fill="#f0f0f0" stroke-width="0px" stroke="none" />
    <!-- Background for hash value, used: -->
    <rect id="hsh_box_N" x="3" y="1" width="34" height="18" fill="#cccccc" stroke-width="0px" stroke="none" />
    <!-- Background for hash value, highlighted: -->
    <rect id="hsh_box_C" x="3" y="1" width="34" height="18" fill="#cccccc" stroke-width="0px" stroke="none" />

    <!-- Vertical dots: -->
    <g id="vdots">
      <rect x="0" y="06" width="2" height="2" />
      <rect x="0" y="12" width="2" height="2" />
    </g>
 </defs>

    <!-- Keys and hash function -->
    <g transform="translate(0,000)"
      text-anchor="middle"
    >

      <text x="15" y="-10" font-size="15px" font-weight="bold" fill="#000000" stroke-width="0px" stroke="none"> 
 </text>

      <g transform="translate(0,40)">
        <use xlink:href="#key_box_C" />
        <text x="15" y="14" stroke-width="0px" stroke="none">S0</text>
        <line x1="40" y1="10" x2="50" y2="10" stroke="#aaaaaa" />
        <line x1="50" y1="10" x2="80" y2="70" stroke="#aaaaaa" />
        <line x1="80" y1="70" x2="105" y2="70" stroke="#aaaaaa" marker-end="url(#arrowtip_C)" />
      </g>
      <g transform="translate(0,80)">
        <use xlink:href="#key_box_N" />
        <text x="15" y="14" stroke-width="0px" stroke="none">S1</text>
        <line x1="40" y1="10" x2="50" y2="10" stroke="#000000" />
        <line x1="50" y1="10" x2="80" y2="-50" stroke="#000000" />
        <line x1="80" y1="-50" x2="105" y2="-50" stroke="#000000" marker-end="url(#arrowtip_N)" />
      </g>
      <g transform="translate(0,120)">
        <use xlink:href="#key_box_N" />
        <text x="15" y="14" stroke-width="0px" stroke="none">S2</text>
        <line x1="40" y1="10" x2="50" y2="10" stroke="#000000" />
        <line x1="50" y1="10" x2="80" y2="110" stroke="#000000" />
        <line x1="80" y1="110" x2="105" y2="110" stroke="#000000" marker-end="url(#arrowtip_N)" />
      </g>
      <g transform="translate(0,160)">
        <use xlink:href="#key_box_C" />
        <text x="15" y="14" stroke-width="0px" stroke="none">S3</text>
        <line x1="40" y1="10" x2="50" y2="10" stroke="#aaaaaa" />
        <line x1="50" y1="10" x2="80" y2="-50" stroke="#aaaaaa" />
        <line x1="80" y1="-50" x2="105" y2="-50" stroke="#aaaaaa" marker-end="url(#arrowtip_C)" />
      </g>
      <g transform="translate(0,200)">
        <use xlink:href="#key_box_C" />
        <text x="15" y="14" stroke-width="0px" stroke="none">S4</text>
        <line x1="40" y1="10" x2="50" y2="10" stroke="#aaaaaa" />
        <line x1="50" y1="10" x2="80" y2="-70" stroke="#aaaaaa" />
        <line x1="80" y1="-70" x2="105" y2="-70" stroke="#aaaaaa" marker-end="url(#arrowtip_C)" />
      </g>

    </g>

    <!-- Hash values and bucket array -->
    <g transform="translate(105,000)"
      text-anchor="middle"
    >

      <text x="40" y="-10" font-size="15px" font-weight="bold" fill="#000000" stroke-width="0px" stroke="none">
 ячейки
 </text>

      <g transform="translate(000,0)">
        <use x="0" xlink:href="#hsh_box_U" />
        <text x="20" y="14">000</text>
        <use x="40" xlink:href="#ptr_box_U" />
        <line x1="50" y1="10" x2="50.000999999999998" y2="10" stroke="#000000" marker-start="url(#linkdot_U)" />
      </g>
      <g transform="translate(000,20)">
        <use x="0" xlink:href="#hsh_box_N" />
        <text x="20" y="14">001</text>
        <use x="40" xlink:href="#ptr_box_E" />
        <line x1="50" y1="10" x2="105" y2="10" stroke="#000000" marker-start="url(#linkdot_N)" marker-end="url(#arrowtip_N)" />
      </g>
      <g transform="translate(000,40)">
        <use x="0" xlink:href="#hsh_box_U" />
        <text x="20" y="14">002</text>
        <use x="40" xlink:href="#ptr_box_U" />
        <line x1="50" y1="10" x2="50.000999999999998" y2="10" stroke="#000000" marker-start="url(#linkdot_U)" />
      </g>
      <g transform="translate(000,60)">
        <text x="20" y="14" font-weight="bold">:</text>
        <text x="50" y="14" font-weight="bold">:</text>
      </g>
      <g transform="translate(000,80)">
        <use x="0" xlink:href="#hsh_box_U" />
        <text x="20" y="14">151</text>
        <use x="40" xlink:href="#ptr_box_U" />
        <line x1="50" y1="10" x2="50.000999999999998" y2="10" stroke="#000000" marker-start="url(#linkdot_U)" />
      </g>
      <g transform="translate(000,100)">
        <use x="0" xlink:href="#hsh_box_C" />
        <text x="20" y="14">152</text>
        <use x="40" xlink:href="#ptr_box_E" />
        <line x1="50" y1="10" x2="105" y2="-20" stroke="#000000" marker-start="url(#linkdot_N)" marker-end="url(#arrowtip_N)" />
      </g>
      <g transform="translate(000,120)">
        <use x="0" xlink:href="#hsh_box_C" />
        <text x="20" y="14">153</text>
        <use x="40" xlink:href="#ptr_box_E" />
        <line x1="50" y1="10" x2="105" y2="10" stroke="#000000" marker-start="url(#linkdot_N)" marker-end="url(#arrowtip_N)" />
      </g>
      <g transform="translate(000,140)">
        <use x="0" xlink:href="#hsh_box_N" />
        <text x="20" y="14">154</text>
        <use x="40" xlink:href="#ptr_box_E" />
        <line x1="50" y1="10" x2="105" y2="40" stroke="#000000" marker-start="url(#linkdot_N)" marker-end="url(#arrowtip_N)" />
      </g>
      <g transform="translate(000,160)">
        <use x="0" xlink:href="#hsh_box_U" />
        <text x="20" y="14">155</text>
        <use x="40" xlink:href="#ptr_box_U" />
        <line x1="50" y1="10" x2="50.000999999999998" y2="10" stroke="#000000" marker-start="url(#linkdot_U)" />
      </g>
      <g transform="translate(000,180)">
        <text x="20" y="14" font-weight="bold">:</text>
        <text x="50" y="14" font-weight="bold">:</text>
      </g>
      <g transform="translate(000,200)">
        <use x="0" xlink:href="#hsh_box_U" />
        <text x="20" y="14">253</text>
        <use x="40" xlink:href="#ptr_box_U" />
        <line x1="50" y1="10" x2="50.000999999999998" y2="10" stroke="#000000" marker-start="url(#linkdot_U)" />
      </g>
      <g transform="translate(000,220)">
        <use x="0" xlink:href="#hsh_box_N" />
        <text x="20" y="14">254</text>
        <use x="40" xlink:href="#ptr_box_E" />
        <line x1="50" y1="10" x2="105" y2="10" stroke="#000000" marker-start="url(#linkdot_N)" marker-end="url(#arrowtip_N)" />
      </g>
      <g transform="translate(000,240)">
        <use x="0" xlink:href="#hsh_box_U" />
        <text x="20" y="14">255</text>
        <use x="40" xlink:href="#ptr_box_U" />
        <line x1="50" y1="10" x2="50.000999999999998" y2="10" stroke="#000000" marker-start="url(#linkdot_U)" />
      </g>

    </g>

    <!-- Hash values and bucket array -->
    <g transform="translate(210,000)"
      text-anchor="middle"
    >

      <text x="25" y="-10" font-size="15px" font-weight="bold" fill="#000000" stroke-width="0px" stroke="none">
 состояния
 </text>

      <g transform="translate(000,20)">
        <use x="0" xlink:href="#key_box_E" />
        <text x="15" y="14">S1</text>
      </g>
      <g transform="translate(000,70)">
        <use x="0" xlink:href="#key_box_E" />
        <text x="15" y="14">S0</text>
      </g>
      <g transform="translate(000,120)">
        <use x="0" xlink:href="#key_box_E" />
        <text x="15" y="14">S3</text>
      </g>
      <g transform="translate(000,170)">
        <use x="0" xlink:href="#key_box_E" />
        <text x="15" y="14">S4</text>
      </g>
      <g transform="translate(000,220)">
        <use x="0" xlink:href="#key_box_E" />
        <text x="15" y="14">S2</text>
      </g>

    </g>

  </g>
</svg>
